# xmcd CD database file
#
# Track frame offsets:
#	150
#	13322
#	23813
#	39624
#	52302
#	73542
#
# Disc length: 1095 seconds
#
# Revision: 0
# Processed by: cddbd v1.5.2PL0 Copyright (c) Steve Scherf et al.
# Submitted via: CDex 1.75
#
DISCID=52044506
DTITLE=Roman Barten-Sherman - Motherless Child Blues
DYEAR=2016
DGENRE=Blues
TTITLE0=Go Back To Your Used To Be
TTITLE1=Wouldn't Mind Dying
TTITLE2=Last Kind Words
TTITLE3=Oh Baby It Aint No Lie
TTITLE4=Motherless Child
TTITLE5=Going to that City
EXTD=YEAR: 2016
EXTT0=
EXTT1=
EXTT2=
EXTT3=
EXTT4=
EXTT5=
PLAYORDER=
